<?xml version="1.0" standalone="no"?>
<!DOCTYPE svg PUBLIC "-//W3C//DTD SVG 20010904//EN"
 "http://www.w3.org/TR/2001/REC-SVG-20010904/DTD/svg10.dtd">
<svg version="1.0" xmlns="http://www.w3.org/2000/svg"
 width="720.000000pt" height="327.000000pt" viewBox="0 0 720.000000 327.000000"
 preserveAspectRatio="xMidYMid meet">
<metadata>
Created by potrace 1.16, written by Peter Selinger 2001-2019
</metadata>
<g transform="translate(0.000000,327.000000) scale(0.100000,-0.100000)"
fill="#000000" stroke="none">
<path d="M7055 1638 l0 -1633 73 -3 72 -3 0 1636 0 1635 -72 0 -73 0 0 -1632z"/>
<path d="M852 3169 c-105 -18 -182 -68 -227 -150 -24 -44 -29 -66 -29 -119 1
-145 81 -217 343 -305 146 -50 181 -79 181 -153 0 -94 -63 -137 -193 -130
-119 6 -197 63 -197 144 l0 34 -86 0 -86 0 7 -32 c16 -89 30 -122 70 -166 118
-131 368 -163 531 -67 85 50 134 153 119 253 -19 129 -114 208 -325 272 -93
28 -164 63 -184 92 -9 12 -16 42 -16 65 0 87 97 145 214 128 84 -13 131 -57
144 -136 l7 -44 78 -3 77 -3 0 43 c0 53 -39 141 -83 186 -44 46 -112 79 -188
92 -72 11 -83 11 -157 -1z"/>
<path d="M1390 3165 c0 -3 74 -140 165 -305 l165 -299 0 -186 0 -185 80 0 80
0 0 189 0 189 153 278 c85 154 159 289 166 302 l12 22 -88 0 -88 0 -113 -220
c-62 -121 -117 -222 -120 -224 -4 -2 -59 95 -123 217 l-115 222 -87 3 c-48 1
-87 0 -87 -3z"/>
<path d="M2290 2680 l0 -490 80 0 80 0 0 343 c1 336 1 342 19 320 11 -13 113
-167 228 -343 l208 -320 73 0 72 0 0 490 0 490 -75 0 -75 0 0 -340 c0 -187 -3
-340 -7 -340 -5 1 -107 153 -228 340 l-220 339 -77 1 -78 0 0 -490z"/>
<path d="M5124 2865 c-4 -10 3 -29 16 -47 19 -26 21 -38 15 -83 -3 -29 -23
-85 -43 -126 -30 -59 -47 -81 -86 -106 -26 -18 -52 -33 -56 -33 -4 0 -7 29 -7
64 0 106 -33 167 -81 152 -24 -8 -70 -82 -78 -124 -10 -50 15 -95 66 -118 l41
-20 -42 -48 c-38 -43 -46 -47 -73 -42 -17 4 -47 19 -66 35 -19 15 -45 33 -57
39 -12 7 -38 33 -59 58 l-38 45 45 39 c54 47 46 61 -15 27 l-45 -25 -11 50
c-6 28 -7 66 -4 85 6 31 4 35 -12 31 -15 -2 -20 -14 -22 -53 -2 -28 2 -68 8
-89 11 -37 10 -41 -12 -57 -19 -15 -21 -20 -10 -31 10 -10 17 -10 31 -1 17 10
23 7 47 -29 16 -23 65 -67 108 -100 119 -87 168 -80 242 32 17 25 39 43 62 51
82 27 179 162 200 277 l7 40 64 -58 65 -58 -27 -39 c-31 -44 -33 -53 -13 -53
22 0 66 59 66 89 0 22 -16 42 -74 94 -41 37 -83 84 -93 104 -19 41 -49 55 -59
28z"/>
<path d="M3918 2613 c-61 -68 -138 -264 -138 -349 0 -66 18 -134 37 -141 24
-10 26 5 8 72 -16 56 -17 75 -7 127 12 62 65 185 103 239 18 25 23 28 37 17 8
-7 23 -31 33 -53 20 -47 45 -195 36 -219 -4 -9 -22 -24 -42 -33 -37 -18 -47
-43 -17 -43 9 1 28 7 42 15 l25 13 17 -109 c10 -60 27 -127 38 -150 38 -74
124 -102 168 -56 40 43 22 64 -24 28 -28 -22 -53 -18 -88 14 -30 28 -52 100
-66 213 l-11 85 36 37 c45 46 45 58 -1 31 -19 -12 -37 -21 -38 -21 -2 0 -7 28
-10 63 -11 92 -32 158 -67 200 -34 41 -49 45 -71 20z"/>
<path d="M5235 2486 c-22 -19 -103 -69 -180 -111 -520 -287 -705 -415 -1059
-734 -240 -217 -252 -229 -239 -242 9 -9 51 25 188 152 359 335 616 521 1005
729 258 138 350 197 350 227 0 22 -23 14 -65 -21z"/>
<path d="M4403 2368 c20 -117 20 -145 -4 -167 -40 -37 -63 -27 -171 78 -45 43
-60 53 -70 43 -9 -9 -2 -22 32 -58 56 -57 129 -111 155 -115 37 -6 76 11 94
42 l19 31 16 -30 c20 -39 53 -62 87 -62 19 0 40 14 73 50 43 45 59 80 37 80
-5 0 -24 -17 -42 -37 -41 -49 -69 -64 -91 -52 -26 14 -70 94 -88 163 -12 42
-23 62 -35 64 -15 3 -17 -1 -12 -30z"/>
<path d="M5070 1998 c0 -18 96 -202 158 -303 129 -212 191 -287 246 -301 45
-11 63 4 91 74 15 37 34 75 43 85 12 13 13 20 4 29 -18 18 -48 -16 -75 -87
-29 -75 -53 -83 -104 -33 -63 59 -229 321 -279 438 -15 36 -34 75 -42 88 -15
23 -42 30 -42 10z"/>
<path d="M5034 1571 c-31 -14 -47 -30 -64 -65 -12 -26 -20 -56 -17 -66 4 -17
2 -19 -21 -12 -41 11 -114 7 -147 -9 -42 -20 -45 -70 -9 -198 l7 -23 -39 26
c-43 28 -116 56 -146 56 -36 0 -16 -33 25 -42 59 -12 117 -46 169 -100 62 -63
79 -54 44 23 -27 59 -56 160 -56 196 0 28 32 43 94 43 57 0 90 -27 111 -90 15
-47 36 -63 50 -40 3 5 -6 36 -20 69 -44 105 -24 193 48 206 58 11 64 5 171
-162 25 -40 52 -73 61 -73 8 0 15 4 15 10 0 5 -33 61 -74 124 -71 108 -109
146 -148 146 -7 0 -31 -9 -54 -19z"/>
<path d="M4119 1414 c-18 -19 -55 -49 -81 -66 -50 -32 -58 -45 -33 -54 14 -6
89 45 144 96 l23 23 63 -67 c35 -36 76 -82 91 -102 l28 -36 -47 -40 c-49 -41
-56 -55 -34 -64 8 -3 33 14 56 37 l42 43 20 -30 c11 -16 40 -67 66 -114 63
-118 88 -153 121 -172 35 -21 41 -16 78 51 16 30 41 62 56 70 31 18 35 29 14
37 -24 9 -52 -13 -87 -68 -18 -29 -34 -55 -36 -57 -7 -10 -57 48 -80 94 -14
27 -48 85 -74 128 -27 43 -49 81 -49 83 0 3 22 27 50 54 41 40 47 50 35 60
-11 9 -23 2 -60 -37 l-46 -48 -41 50 c-70 83 -154 165 -169 165 -8 0 -31 -16
-50 -36z"/>
<path d="M5705 1315 c-43 -73 -165 -195 -270 -269 -39 -28 -95 -70 -125 -96
-113 -94 -374 -276 -539 -375 -135 -81 -361 -266 -361 -296 0 -25 42 -3 95 52
79 79 175 152 310 234 133 81 407 272 530 370 50 40 120 93 157 119 145 102
316 326 249 326 -5 0 -25 -29 -46 -65z"/>
<path d="M3770 1140 c0 -11 4 -20 9 -20 38 0 311 -468 311 -534 0 -21 29 -41
41 -29 12 12 -35 128 -95 238 l-33 61 79 69 c79 71 111 90 135 81 22 -9 128
-160 182 -260 50 -93 66 -110 77 -83 6 16 -71 150 -164 283 -94 135 -101 135
-252 9 l-78 -65 -57 92 c-96 155 -155 215 -155 158z"/>
<path d="M0 1076 c0 -8 7 -17 16 -20 10 -4 13 -2 8 7 -4 7 -3 9 2 4 15 -14 13
-74 -2 -74 -7 0 -11 4 -8 9 3 4 0 8 -5 8 -6 0 -11 -7 -11 -15 0 -8 5 -15 12
-15 9 0 9 -3 0 -12 -9 -9 -12 -132 -12 -490 l0 -479 73 3 72 3 -2 100 c-1 55
-4 282 -7 505 -3 223 -6 421 -7 440 l-1 35 -8 -30 c-4 -16 -8 -22 -9 -12 -1
15 -3 16 -14 5 -8 -7 -16 -20 -20 -28 -3 -8 -5 -3 -4 13 1 15 5 27 9 27 4 0 8
4 8 9 0 5 -14 7 -30 6 -17 -1 -33 1 -36 6 -8 14 -24 11 -24 -5z"/>
</g>
</svg>
